{
  "accessors": [
    {
      "bufferView": 1,
      "componentType": 5126,
      "count": 712,
      "max": [
        3.5,
        1.3333300352096558,
        1.399999976158142
      ],
      "min": [
        -6.5,
        -1.3333300352096558,
        -12.199999809265137
      ],
      "type": "VEC3"
    },
    {
      "bufferView": 1,
      "byteOffset": 8544,
      "componentType": 5126,
      "count": 712,
      "max": [
        1.0,
        1.0,
        1.0
      ],
      "min": [
        -1.0,
        -1.0,
        -1.0
      ],
      "type": "VEC3"
    },
    {
      "bufferView": 0,
      "componentType": 5125,
      "count": 3936,
      "type": "SCALAR"
    }
  ],
  "asset": {
    "extras": {
      "author": "owocean (https://sketchfab.com/owocean)",
      "license": "CC-BY-4.0 (http://creativecommons.org/licenses/by/4.0/)",
      "source": "https://sketchfab.com/3d-models/key-3ebf41c7d1a54acfa901b6ba34ff7be4",
      "title": "Key"
    },
    "generator": "Sketchfab-12.68.0",
    "version": "2.0"
  },
  "bufferViews": [
    {
      "buffer": 0,
      "byteLength": 15744,
      "name": "floatBufferViews",
      "target": 34963
    },
    {
      "buffer": 0,
      "byteLength": 17088,
      "byteOffset": 15744,
      "byteStride": 12,
      "name": "floatBufferViews",
      "target": 34962
    }
  ],
  "buffers": [
    {
      "byteLength": 32832,
      "uri": "scene.bin"
    }
  ],
  "materials": [
    {
      "doubleSided": true,
      "name": "Material.001",
      "pbrMetallicRoughness": {
        "baseColorFactor": [
          1.0,
          0.5260950326919556,
          0.11321551352739334,
          1.0
        ],
        "metallicFactor": 0.0,
        "roughnessFactor": 0.6
      }
    }
  ],
  "meshes": [
    {
      "name": "Cube.001_0",
      "primitives": [
        {
          "attributes": {
            "NORMAL": 1,
            "POSITION": 0
          },
          "indices": 2,
          "material": 0,
          "mode": 4
        }
      ]
    }
  ],
  "nodes": [
    {
      "children": [
        1
      ],
      "matrix": [
        2.594061879790388e-05,
        -0.9999891519546509,
        0.004661340266465919,
        0.0,
        -0.005564909428358078,
        -0.004661412443965451,
        -0.9999736547470093,
        0.0,
        0.9999845027923584,
        4.331105467595259e-15,
        -0.005564969964325428,
        0.0,
        -2.5999598503112793,
        2.6000008583068848,
        0.01446892227977572,
        1.0
      ],
      "name": "Sketchfab_model"
    },
    {
      "children": [
        2
      ],
      "name": "Root"
    },
    {
      "children": [
        3
      ],
      "matrix": [
        0.2,
        0.0,
        0.0,
        0.0,
        0.0,
        0.15000000000000002,
        0.0,
        0.0,
        0.0,
        0.0,
        0.5,
        0.0,
        0.30000000000000004,
        0.0,
        5.3,
        1.0
      ],
      "name": "Cube.001"
    },
    {
      "mesh": 0,
      "name": "Cube.001_0"
    }
  ],
  "scene": 0,
  "scenes": [
    {
      "name": "Sketchfab_Scene",
      "nodes": [
        0
      ]
    }
  ]
}
